<mxfile host="app.diagrams.net" agent="Mozilla/5.0 (Windows NT 10.0; Win64; x64) AppleWebKit/537.36 (KHTML, like Gecko) Chrome/139.0.0.0 Safari/537.36" version="28.1.1">
  <diagram id="C5RBs43oDa-KdzZeNtuy" name="Page-1">
    <mxGraphModel dx="2037" dy="1073" grid="1" gridSize="10" guides="1" tooltips="1" connect="1" arrows="1" fold="1" page="1" pageScale="1" pageWidth="827" pageHeight="1169" math="0" shadow="0">
      <root>
        <mxCell id="WIyWlLk6GJQsqaUBKTNV-0" />
        <mxCell id="WIyWlLk6GJQsqaUBKTNV-1" parent="WIyWlLk6GJQsqaUBKTNV-0" />
        <mxCell id="LbXfjOIU6HOhNs-jUx_r-26" value="&lt;i style=&quot;&quot;&gt;consum_1.csv&lt;br&gt;&lt;/i&gt;&lt;i style=&quot;border-color: var(--border-color);&quot;&gt;consum_2.csv&lt;br&gt;&lt;/i&gt;&lt;i style=&quot;&quot;&gt;&lt;br&gt;&lt;br&gt;&lt;br&gt;&lt;/i&gt;&lt;i style=&quot;border-color: var(--border-color);&quot;&gt;consum_50.csv&lt;/i&gt;&lt;i style=&quot;&quot;&gt;&lt;br&gt;&lt;/i&gt;" style="rounded=0;whiteSpace=wrap;html=1;shadow=0;fillColor=#FFFFFF;" parent="WIyWlLk6GJQsqaUBKTNV-1" vertex="1">
          <mxGeometry x="970" y="200" width="120" height="107.5" as="geometry" />
        </mxCell>
        <mxCell id="LbXfjOIU6HOhNs-jUx_r-0" value="&lt;i&gt;SustDataED&lt;/i&gt;" style="swimlane;whiteSpace=wrap;html=1;" parent="WIyWlLk6GJQsqaUBKTNV-1" vertex="1">
          <mxGeometry x="120" y="110" width="200" height="410" as="geometry" />
        </mxCell>
        <mxCell id="LbXfjOIU6HOhNs-jUx_r-1" value="&lt;i&gt;&lt;b&gt;Datos de consumo&lt;/b&gt;&lt;/i&gt;" style="rounded=0;whiteSpace=wrap;html=1;shadow=0;fillColor=#E0E0E0;" parent="LbXfjOIU6HOhNs-jUx_r-0" vertex="1">
          <mxGeometry x="32.5" y="50" width="135" height="40" as="geometry" />
        </mxCell>
        <mxCell id="LbXfjOIU6HOhNs-jUx_r-2" value="&lt;i&gt;Datos de producción&lt;/i&gt;" style="rounded=0;whiteSpace=wrap;html=1;shadow=0;fillColor=#E0E0E0;" parent="LbXfjOIU6HOhNs-jUx_r-0" vertex="1">
          <mxGeometry x="32.5" y="170" width="135" height="40" as="geometry" />
        </mxCell>
        <mxCell id="LbXfjOIU6HOhNs-jUx_r-3" value="&lt;i&gt;Datos climáticos y ambientales&lt;/i&gt;" style="rounded=0;whiteSpace=wrap;html=1;shadow=0;fillColor=#E0E0E0;" parent="LbXfjOIU6HOhNs-jUx_r-0" vertex="1">
          <mxGeometry x="32.5" y="110" width="135" height="40" as="geometry" />
        </mxCell>
        <mxCell id="LbXfjOIU6HOhNs-jUx_r-13" value="&lt;i&gt;Datos de eventos de usuario&lt;/i&gt;" style="rounded=0;whiteSpace=wrap;html=1;shadow=0;fillColor=#E0E0E0;" parent="LbXfjOIU6HOhNs-jUx_r-0" vertex="1">
          <mxGeometry x="32.5" y="230" width="135" height="40" as="geometry" />
        </mxCell>
        <mxCell id="LbXfjOIU6HOhNs-jUx_r-14" value="&lt;i&gt;Datos de eventos de potencia&lt;/i&gt;" style="rounded=0;whiteSpace=wrap;html=1;shadow=0;fillColor=#E0E0E0;" parent="LbXfjOIU6HOhNs-jUx_r-0" vertex="1">
          <mxGeometry x="32.5" y="350" width="135" height="40" as="geometry" />
        </mxCell>
        <mxCell id="LbXfjOIU6HOhNs-jUx_r-16" value="&lt;i&gt;Datos demográficos&lt;/i&gt;" style="rounded=0;whiteSpace=wrap;html=1;shadow=0;fillColor=#E0E0E0;" parent="LbXfjOIU6HOhNs-jUx_r-0" vertex="1">
          <mxGeometry x="32.5" y="290" width="135" height="40" as="geometry" />
        </mxCell>
        <mxCell id="LbXfjOIU6HOhNs-jUx_r-40" value="" style="endArrow=none;dashed=1;html=1;rounded=0;exitX=1;exitY=0.5;exitDx=0;exitDy=0;entryX=0;entryY=0.5;entryDx=0;entryDy=0;" parent="LbXfjOIU6HOhNs-jUx_r-0" edge="1">
          <mxGeometry width="50" height="50" relative="1" as="geometry">
            <mxPoint x="167.5" y="189.70999999999998" as="sourcePoint" />
            <mxPoint x="229.5" y="189.70999999999998" as="targetPoint" />
          </mxGeometry>
        </mxCell>
        <mxCell id="LbXfjOIU6HOhNs-jUx_r-4" value="&lt;i&gt;PVWatts&lt;/i&gt;" style="swimlane;whiteSpace=wrap;html=1;" parent="WIyWlLk6GJQsqaUBKTNV-1" vertex="1">
          <mxGeometry x="120" y="560" width="200" height="185" as="geometry" />
        </mxCell>
        <mxCell id="LbXfjOIU6HOhNs-jUx_r-5" value="&lt;i&gt;Datos de producción mensuales&lt;/i&gt;" style="rounded=0;whiteSpace=wrap;html=1;shadow=0;fillColor=#E0E0E0;" parent="LbXfjOIU6HOhNs-jUx_r-4" vertex="1">
          <mxGeometry x="30" y="55" width="135" height="40" as="geometry" />
        </mxCell>
        <mxCell id="LbXfjOIU6HOhNs-jUx_r-6" value="&lt;i&gt;&lt;b&gt;Datos de producción por hora&lt;/b&gt;&lt;/i&gt;" style="rounded=0;whiteSpace=wrap;html=1;shadow=0;fillColor=#E0E0E0;" parent="LbXfjOIU6HOhNs-jUx_r-4" vertex="1">
          <mxGeometry x="30" y="115" width="135" height="45" as="geometry" />
        </mxCell>
        <mxCell id="LbXfjOIU6HOhNs-jUx_r-22" style="edgeStyle=orthogonalEdgeStyle;rounded=0;orthogonalLoop=1;jettySize=auto;html=1;exitX=1;exitY=0.5;exitDx=0;exitDy=0;entryX=0;entryY=0.5;entryDx=0;entryDy=0;" parent="WIyWlLk6GJQsqaUBKTNV-1" source="LbXfjOIU6HOhNs-jUx_r-18" target="LbXfjOIU6HOhNs-jUx_r-21" edge="1">
          <mxGeometry relative="1" as="geometry">
            <mxPoint x="510" y="170" as="sourcePoint" />
          </mxGeometry>
        </mxCell>
        <mxCell id="LbXfjOIU6HOhNs-jUx_r-23" value="&lt;b&gt;&lt;i&gt;preprocessing_nodes.ipynb&lt;br&gt;split.ipynb&lt;br&gt;&lt;/i&gt;&lt;/b&gt;" style="edgeLabel;html=1;align=center;verticalAlign=middle;resizable=0;points=[];" parent="LbXfjOIU6HOhNs-jUx_r-22" vertex="1" connectable="0">
          <mxGeometry x="-0.0444" y="-4" relative="1" as="geometry">
            <mxPoint y="-12" as="offset" />
          </mxGeometry>
        </mxCell>
        <mxCell id="LbXfjOIU6HOhNs-jUx_r-18" value="&lt;i style=&quot;&quot;&gt;power_samples_dx_y.csv&lt;/i&gt;" style="rounded=0;whiteSpace=wrap;html=1;shadow=0;fillColor=#FFFFFF;" parent="WIyWlLk6GJQsqaUBKTNV-1" vertex="1">
          <mxGeometry x="350" y="160" width="160" height="40" as="geometry" />
        </mxCell>
        <mxCell id="LbXfjOIU6HOhNs-jUx_r-20" value="" style="endArrow=none;dashed=1;html=1;rounded=0;exitX=1;exitY=0.5;exitDx=0;exitDy=0;entryX=0;entryY=0.5;entryDx=0;entryDy=0;" parent="WIyWlLk6GJQsqaUBKTNV-1" source="LbXfjOIU6HOhNs-jUx_r-1" target="LbXfjOIU6HOhNs-jUx_r-18" edge="1">
          <mxGeometry width="50" height="50" relative="1" as="geometry">
            <mxPoint x="410" y="320" as="sourcePoint" />
            <mxPoint x="460" y="270" as="targetPoint" />
          </mxGeometry>
        </mxCell>
        <mxCell id="LbXfjOIU6HOhNs-jUx_r-27" style="edgeStyle=orthogonalEdgeStyle;rounded=0;orthogonalLoop=1;jettySize=auto;html=1;exitX=1;exitY=0.5;exitDx=0;exitDy=0;entryX=0;entryY=0.5;entryDx=0;entryDy=0;" parent="WIyWlLk6GJQsqaUBKTNV-1" source="LbXfjOIU6HOhNs-jUx_r-21" target="LbXfjOIU6HOhNs-jUx_r-26" edge="1">
          <mxGeometry relative="1" as="geometry">
            <Array as="points">
              <mxPoint x="880" y="50" />
              <mxPoint x="880" y="254" />
            </Array>
          </mxGeometry>
        </mxCell>
        <mxCell id="LbXfjOIU6HOhNs-jUx_r-21" value="&lt;i style=&quot;&quot;&gt;power_samples_dx_y_z.csv&lt;/i&gt;" style="rounded=0;whiteSpace=wrap;html=1;shadow=0;fillColor=#FFFFFF;" parent="WIyWlLk6GJQsqaUBKTNV-1" vertex="1">
          <mxGeometry x="680" y="30" width="170" height="40" as="geometry" />
        </mxCell>
        <mxCell id="LbXfjOIU6HOhNs-jUx_r-24" value="&lt;font style=&quot;font-size: 11px;&quot;&gt;&lt;i&gt;11 ficheros&lt;/i&gt;&lt;/font&gt;" style="text;html=1;align=center;verticalAlign=middle;resizable=0;points=[];autosize=1;strokeColor=none;fillColor=none;" parent="WIyWlLk6GJQsqaUBKTNV-1" vertex="1">
          <mxGeometry x="510" y="160" width="80" height="30" as="geometry" />
        </mxCell>
        <mxCell id="LbXfjOIU6HOhNs-jUx_r-25" value="&lt;font style=&quot;font-size: 11px;&quot;&gt;&lt;i&gt;28 ficheros&lt;/i&gt;&lt;/font&gt;" style="text;html=1;align=center;verticalAlign=middle;resizable=0;points=[];autosize=1;strokeColor=none;fillColor=none;" parent="WIyWlLk6GJQsqaUBKTNV-1" vertex="1">
          <mxGeometry x="590" y="30" width="80" height="30" as="geometry" />
        </mxCell>
        <mxCell id="LbXfjOIU6HOhNs-jUx_r-32" style="edgeStyle=orthogonalEdgeStyle;rounded=0;orthogonalLoop=1;jettySize=auto;html=1;exitX=1;exitY=0.5;exitDx=0;exitDy=0;entryX=0;entryY=0.5;entryDx=0;entryDy=0;" parent="WIyWlLk6GJQsqaUBKTNV-1" source="LbXfjOIU6HOhNs-jUx_r-26" target="LbXfjOIU6HOhNs-jUx_r-31" edge="1">
          <mxGeometry relative="1" as="geometry">
            <Array as="points">
              <mxPoint x="1140" y="254" />
              <mxPoint x="1140" y="84" />
            </Array>
          </mxGeometry>
        </mxCell>
        <mxCell id="LbXfjOIU6HOhNs-jUx_r-29" value="" style="endArrow=none;dashed=1;html=1;dashPattern=1 3;strokeWidth=2;rounded=0;" parent="WIyWlLk6GJQsqaUBKTNV-1" edge="1">
          <mxGeometry width="50" height="50" relative="1" as="geometry">
            <mxPoint x="1029.75" y="277.5" as="sourcePoint" />
            <mxPoint x="1029.75" y="247.5" as="targetPoint" />
            <Array as="points" />
          </mxGeometry>
        </mxCell>
        <mxCell id="LbXfjOIU6HOhNs-jUx_r-30" value="&lt;b&gt;&lt;i&gt;datasamples_process.py&lt;br&gt;&lt;/i&gt;&lt;/b&gt;" style="edgeLabel;html=1;align=center;verticalAlign=middle;resizable=0;points=[];" parent="WIyWlLk6GJQsqaUBKTNV-1" vertex="1" connectable="0">
          <mxGeometry x="880" y="130" as="geometry" />
        </mxCell>
        <mxCell id="LbXfjOIU6HOhNs-jUx_r-80" style="edgeStyle=orthogonalEdgeStyle;rounded=0;orthogonalLoop=1;jettySize=auto;html=1;exitX=0.5;exitY=1;exitDx=0;exitDy=0;entryX=0.5;entryY=0;entryDx=0;entryDy=0;" parent="WIyWlLk6GJQsqaUBKTNV-1" source="LbXfjOIU6HOhNs-jUx_r-31" target="LbXfjOIU6HOhNs-jUx_r-68" edge="1">
          <mxGeometry relative="1" as="geometry" />
        </mxCell>
        <mxCell id="LbXfjOIU6HOhNs-jUx_r-31" value="&lt;i style=&quot;&quot;&gt;consum_1.csv&lt;br&gt;&lt;/i&gt;&lt;i style=&quot;border-color: var(--border-color);&quot;&gt;consum_2.csv&lt;br&gt;&lt;/i&gt;&lt;i style=&quot;&quot;&gt;&lt;br&gt;&lt;br&gt;&lt;br&gt;&lt;/i&gt;&lt;i style=&quot;border-color: var(--border-color);&quot;&gt;consum_23.csv&lt;/i&gt;&lt;i style=&quot;&quot;&gt;&lt;br&gt;&lt;/i&gt;" style="rounded=0;whiteSpace=wrap;html=1;shadow=0;fillColor=#FFFFFF;" parent="WIyWlLk6GJQsqaUBKTNV-1" vertex="1">
          <mxGeometry x="1226" y="30" width="120" height="107.5" as="geometry" />
        </mxCell>
        <mxCell id="LbXfjOIU6HOhNs-jUx_r-33" value="&lt;b&gt;&lt;i&gt;Selección de despliegue 2&lt;br&gt;sum_range.ipynb&lt;br&gt;&lt;/i&gt;&lt;/b&gt;" style="edgeLabel;html=1;align=center;verticalAlign=middle;resizable=0;points=[];" parent="WIyWlLk6GJQsqaUBKTNV-1" vertex="1" connectable="0">
          <mxGeometry x="1140" y="163.75" as="geometry" />
        </mxCell>
        <mxCell id="LbXfjOIU6HOhNs-jUx_r-34" value="&lt;font style=&quot;font-size: 11px;&quot;&gt;&lt;i&gt;50 ficheros&lt;/i&gt;&lt;/font&gt;" style="text;html=1;align=center;verticalAlign=middle;resizable=0;points=[];autosize=1;strokeColor=none;fillColor=none;" parent="WIyWlLk6GJQsqaUBKTNV-1" vertex="1">
          <mxGeometry x="880" y="227.5" width="80" height="30" as="geometry" />
        </mxCell>
        <mxCell id="LbXfjOIU6HOhNs-jUx_r-35" value="&lt;font style=&quot;font-size: 11px;&quot;&gt;&lt;i&gt;23 ficheros&lt;/i&gt;&lt;/font&gt;" style="text;html=1;align=center;verticalAlign=middle;resizable=0;points=[];autosize=1;strokeColor=none;fillColor=none;" parent="WIyWlLk6GJQsqaUBKTNV-1" vertex="1">
          <mxGeometry x="1136" y="63.75" width="80" height="30" as="geometry" />
        </mxCell>
        <mxCell id="LbXfjOIU6HOhNs-jUx_r-36" value="" style="endArrow=none;dashed=1;html=1;dashPattern=1 3;strokeWidth=2;rounded=0;" parent="WIyWlLk6GJQsqaUBKTNV-1" edge="1">
          <mxGeometry width="50" height="50" relative="1" as="geometry">
            <mxPoint x="1286" y="103.75" as="sourcePoint" />
            <mxPoint x="1285.9999999999998" y="73.75" as="targetPoint" />
            <Array as="points" />
          </mxGeometry>
        </mxCell>
        <mxCell id="LbXfjOIU6HOhNs-jUx_r-37" value="&lt;i style=&quot;&quot;&gt;enviroment.csv&lt;/i&gt;" style="rounded=0;whiteSpace=wrap;html=1;shadow=0;fillColor=#FFFFFF;" parent="WIyWlLk6GJQsqaUBKTNV-1" vertex="1">
          <mxGeometry x="350" y="220" width="130" height="40" as="geometry" />
        </mxCell>
        <mxCell id="LbXfjOIU6HOhNs-jUx_r-53" style="edgeStyle=orthogonalEdgeStyle;rounded=0;orthogonalLoop=1;jettySize=auto;html=1;exitX=0.5;exitY=1;exitDx=0;exitDy=0;entryX=0;entryY=0.5;entryDx=0;entryDy=0;" parent="WIyWlLk6GJQsqaUBKTNV-1" source="LbXfjOIU6HOhNs-jUx_r-38" target="LbXfjOIU6HOhNs-jUx_r-50" edge="1">
          <mxGeometry relative="1" as="geometry" />
        </mxCell>
        <mxCell id="LbXfjOIU6HOhNs-jUx_r-38" value="&lt;i style=&quot;border-color: var(--border-color);&quot;&gt;production&lt;/i&gt;&lt;i style=&quot;&quot;&gt;.csv&lt;/i&gt;" style="rounded=0;whiteSpace=wrap;html=1;shadow=0;fillColor=#FFFFFF;" parent="WIyWlLk6GJQsqaUBKTNV-1" vertex="1">
          <mxGeometry x="350" y="280" width="130" height="40" as="geometry" />
        </mxCell>
        <mxCell id="LbXfjOIU6HOhNs-jUx_r-39" value="" style="endArrow=none;dashed=1;html=1;rounded=0;exitX=1;exitY=0.5;exitDx=0;exitDy=0;entryX=0;entryY=0.5;entryDx=0;entryDy=0;" parent="WIyWlLk6GJQsqaUBKTNV-1" edge="1">
          <mxGeometry width="50" height="50" relative="1" as="geometry">
            <mxPoint x="288" y="239.71" as="sourcePoint" />
            <mxPoint x="350" y="239.71" as="targetPoint" />
          </mxGeometry>
        </mxCell>
        <mxCell id="LbXfjOIU6HOhNs-jUx_r-41" value="&lt;i style=&quot;&quot;&gt;env+prod.csv&lt;/i&gt;" style="rounded=0;whiteSpace=wrap;html=1;shadow=0;fillColor=#FFFFFF;" parent="WIyWlLk6GJQsqaUBKTNV-1" vertex="1">
          <mxGeometry x="705" y="250" width="120" height="40" as="geometry" />
        </mxCell>
        <mxCell id="LbXfjOIU6HOhNs-jUx_r-44" value="" style="endArrow=none;html=1;rounded=0;exitX=1;exitY=0.5;exitDx=0;exitDy=0;" parent="WIyWlLk6GJQsqaUBKTNV-1" source="LbXfjOIU6HOhNs-jUx_r-37" edge="1">
          <mxGeometry width="50" height="50" relative="1" as="geometry">
            <mxPoint x="490" y="260" as="sourcePoint" />
            <mxPoint x="540" y="240" as="targetPoint" />
          </mxGeometry>
        </mxCell>
        <mxCell id="LbXfjOIU6HOhNs-jUx_r-45" value="" style="endArrow=none;html=1;rounded=0;exitX=1;exitY=0.5;exitDx=0;exitDy=0;" parent="WIyWlLk6GJQsqaUBKTNV-1" edge="1">
          <mxGeometry width="50" height="50" relative="1" as="geometry">
            <mxPoint x="480" y="299.58" as="sourcePoint" />
            <mxPoint x="540" y="299.58" as="targetPoint" />
          </mxGeometry>
        </mxCell>
        <mxCell id="LbXfjOIU6HOhNs-jUx_r-46" value="" style="endArrow=none;html=1;rounded=0;" parent="WIyWlLk6GJQsqaUBKTNV-1" edge="1">
          <mxGeometry width="50" height="50" relative="1" as="geometry">
            <mxPoint x="540" y="240" as="sourcePoint" />
            <mxPoint x="540" y="300" as="targetPoint" />
          </mxGeometry>
        </mxCell>
        <mxCell id="LbXfjOIU6HOhNs-jUx_r-47" value="" style="endArrow=classic;html=1;rounded=0;entryX=0;entryY=0.5;entryDx=0;entryDy=0;" parent="WIyWlLk6GJQsqaUBKTNV-1" target="LbXfjOIU6HOhNs-jUx_r-41" edge="1">
          <mxGeometry width="50" height="50" relative="1" as="geometry">
            <mxPoint x="540" y="270" as="sourcePoint" />
            <mxPoint x="590" y="310" as="targetPoint" />
          </mxGeometry>
        </mxCell>
        <mxCell id="LbXfjOIU6HOhNs-jUx_r-48" value="&lt;b&gt;&lt;i&gt;preprocessing_production.ipynb&amp;nbsp;&lt;br&gt;&lt;/i&gt;&lt;/b&gt;" style="edgeLabel;html=1;align=center;verticalAlign=middle;resizable=0;points=[];" parent="WIyWlLk6GJQsqaUBKTNV-1" vertex="1" connectable="0">
          <mxGeometry x="570" y="269.9966666666665" as="geometry" />
        </mxCell>
        <mxCell id="LbXfjOIU6HOhNs-jUx_r-50" value="&lt;i style=&quot;&quot;&gt;mean_prod.csv&lt;/i&gt;" style="rounded=0;whiteSpace=wrap;html=1;shadow=0;fillColor=#FFFFFF;" parent="WIyWlLk6GJQsqaUBKTNV-1" vertex="1">
          <mxGeometry x="510" y="358.75" width="120" height="40" as="geometry" />
        </mxCell>
        <mxCell id="LbXfjOIU6HOhNs-jUx_r-54" value="&lt;b&gt;&lt;i&gt;datasamples_process.py&lt;br&gt;&lt;/i&gt;&lt;/b&gt;" style="edgeLabel;html=1;align=center;verticalAlign=middle;resizable=0;points=[];" parent="WIyWlLk6GJQsqaUBKTNV-1" vertex="1" connectable="0">
          <mxGeometry x="415" y="350" as="geometry" />
        </mxCell>
        <mxCell id="LbXfjOIU6HOhNs-jUx_r-56" value="" style="endArrow=none;dashed=1;html=1;rounded=0;exitX=1;exitY=0.5;exitDx=0;exitDy=0;entryX=0;entryY=0.5;entryDx=0;entryDy=0;" parent="WIyWlLk6GJQsqaUBKTNV-1" edge="1">
          <mxGeometry width="50" height="50" relative="1" as="geometry">
            <mxPoint x="288" y="700" as="sourcePoint" />
            <mxPoint x="350" y="700" as="targetPoint" />
          </mxGeometry>
        </mxCell>
        <mxCell id="LbXfjOIU6HOhNs-jUx_r-60" style="edgeStyle=orthogonalEdgeStyle;rounded=0;orthogonalLoop=1;jettySize=auto;html=1;exitX=1;exitY=0.5;exitDx=0;exitDy=0;entryX=0;entryY=0.5;entryDx=0;entryDy=0;" parent="WIyWlLk6GJQsqaUBKTNV-1" source="LbXfjOIU6HOhNs-jUx_r-57" target="LbXfjOIU6HOhNs-jUx_r-59" edge="1">
          <mxGeometry relative="1" as="geometry" />
        </mxCell>
        <mxCell id="LbXfjOIU6HOhNs-jUx_r-57" value="&lt;i&gt;pvwatts_hourly.csv&lt;/i&gt;" style="rounded=0;whiteSpace=wrap;html=1;shadow=0;fillColor=#FFFFFF;" parent="WIyWlLk6GJQsqaUBKTNV-1" vertex="1">
          <mxGeometry x="350" y="680" width="140" height="40" as="geometry" />
        </mxCell>
        <mxCell id="LbXfjOIU6HOhNs-jUx_r-59" value="&lt;i&gt;new_pvwatts_hourly.csv&lt;/i&gt;" style="rounded=0;whiteSpace=wrap;html=1;shadow=0;fillColor=#FFFFFF;" parent="WIyWlLk6GJQsqaUBKTNV-1" vertex="1">
          <mxGeometry x="580" y="580" width="160" height="40" as="geometry" />
        </mxCell>
        <mxCell id="LbXfjOIU6HOhNs-jUx_r-61" value="&lt;b&gt;&lt;i&gt;preprocessing_production.ipynb&lt;br&gt;&lt;/i&gt;&lt;/b&gt;" style="edgeLabel;html=1;align=center;verticalAlign=middle;resizable=0;points=[];" parent="WIyWlLk6GJQsqaUBKTNV-1" vertex="1" connectable="0">
          <mxGeometry x="530" y="652.4966666666664" as="geometry" />
        </mxCell>
        <mxCell id="LbXfjOIU6HOhNs-jUx_r-63" value="&lt;b&gt;&lt;i style=&quot;&quot;&gt;load_1.csv&lt;br&gt;&lt;/i&gt;&lt;i style=&quot;border-color: var(--border-color);&quot;&gt;&lt;i style=&quot;border-color: var(--border-color);&quot;&gt;load&lt;/i&gt;_2.csv&lt;br&gt;&lt;/i&gt;&lt;i style=&quot;&quot;&gt;&lt;br&gt;&lt;br&gt;&lt;br&gt;&lt;/i&gt;&lt;i style=&quot;border-color: var(--border-color);&quot;&gt;&lt;i style=&quot;border-color: var(--border-color);&quot;&gt;load&lt;/i&gt;_23.csv&lt;/i&gt;&lt;/b&gt;&lt;i style=&quot;&quot;&gt;&lt;br&gt;&lt;/i&gt;" style="rounded=0;whiteSpace=wrap;html=1;shadow=0;fillColor=#FFFFFF;" parent="WIyWlLk6GJQsqaUBKTNV-1" vertex="1">
          <mxGeometry x="1390" y="251.25" width="120" height="107.5" as="geometry" />
        </mxCell>
        <mxCell id="LbXfjOIU6HOhNs-jUx_r-81" style="edgeStyle=orthogonalEdgeStyle;rounded=0;orthogonalLoop=1;jettySize=auto;html=1;exitX=1;exitY=0.5;exitDx=0;exitDy=0;" parent="WIyWlLk6GJQsqaUBKTNV-1" source="LbXfjOIU6HOhNs-jUx_r-68" target="LbXfjOIU6HOhNs-jUx_r-63" edge="1">
          <mxGeometry relative="1" as="geometry" />
        </mxCell>
        <mxCell id="LbXfjOIU6HOhNs-jUx_r-68" value="" style="ellipse;whiteSpace=wrap;html=1;aspect=fixed;" parent="WIyWlLk6GJQsqaUBKTNV-1" vertex="1">
          <mxGeometry x="1261" y="280" width="50" height="50" as="geometry" />
        </mxCell>
        <mxCell id="LbXfjOIU6HOhNs-jUx_r-69" value="" style="endArrow=none;html=1;rounded=0;exitX=0;exitY=0;exitDx=0;exitDy=0;entryX=1;entryY=1;entryDx=0;entryDy=0;" parent="WIyWlLk6GJQsqaUBKTNV-1" source="LbXfjOIU6HOhNs-jUx_r-68" target="LbXfjOIU6HOhNs-jUx_r-68" edge="1">
          <mxGeometry width="50" height="50" relative="1" as="geometry">
            <mxPoint x="1301" y="410" as="sourcePoint" />
            <mxPoint x="1351" y="360" as="targetPoint" />
          </mxGeometry>
        </mxCell>
        <mxCell id="LbXfjOIU6HOhNs-jUx_r-70" value="" style="endArrow=none;html=1;rounded=0;exitX=0;exitY=1;exitDx=0;exitDy=0;entryX=1;entryY=0;entryDx=0;entryDy=0;" parent="WIyWlLk6GJQsqaUBKTNV-1" source="LbXfjOIU6HOhNs-jUx_r-68" target="LbXfjOIU6HOhNs-jUx_r-68" edge="1">
          <mxGeometry width="50" height="50" relative="1" as="geometry">
            <mxPoint x="1277" y="296" as="sourcePoint" />
            <mxPoint x="1305" y="324" as="targetPoint" />
          </mxGeometry>
        </mxCell>
        <mxCell id="LbXfjOIU6HOhNs-jUx_r-71" value="" style="endArrow=none;html=1;rounded=0;exitX=1;exitY=0.5;exitDx=0;exitDy=0;" parent="WIyWlLk6GJQsqaUBKTNV-1" source="LbXfjOIU6HOhNs-jUx_r-50" edge="1">
          <mxGeometry width="50" height="50" relative="1" as="geometry">
            <mxPoint x="720" y="440" as="sourcePoint" />
            <mxPoint x="780" y="379" as="targetPoint" />
          </mxGeometry>
        </mxCell>
        <mxCell id="LbXfjOIU6HOhNs-jUx_r-72" value="" style="endArrow=none;html=1;rounded=0;exitX=1;exitY=0.5;exitDx=0;exitDy=0;" parent="WIyWlLk6GJQsqaUBKTNV-1" source="LbXfjOIU6HOhNs-jUx_r-59" edge="1">
          <mxGeometry width="50" height="50" relative="1" as="geometry">
            <mxPoint x="750" y="599" as="sourcePoint" />
            <mxPoint x="780" y="599" as="targetPoint" />
          </mxGeometry>
        </mxCell>
        <mxCell id="LbXfjOIU6HOhNs-jUx_r-74" value="" style="endArrow=none;html=1;rounded=0;" parent="WIyWlLk6GJQsqaUBKTNV-1" edge="1">
          <mxGeometry width="50" height="50" relative="1" as="geometry">
            <mxPoint x="780" y="380" as="sourcePoint" />
            <mxPoint x="780" y="600" as="targetPoint" />
          </mxGeometry>
        </mxCell>
        <mxCell id="LbXfjOIU6HOhNs-jUx_r-75" value="" style="endArrow=classic;html=1;rounded=0;entryX=0;entryY=0.5;entryDx=0;entryDy=0;" parent="WIyWlLk6GJQsqaUBKTNV-1" target="LbXfjOIU6HOhNs-jUx_r-78" edge="1">
          <mxGeometry width="50" height="50" relative="1" as="geometry">
            <mxPoint x="827" y="490" as="sourcePoint" />
            <mxPoint x="980" y="490" as="targetPoint" />
          </mxGeometry>
        </mxCell>
        <mxCell id="LbXfjOIU6HOhNs-jUx_r-77" value="&lt;b&gt;&lt;i&gt;Selección de datos de producción&lt;br&gt;power_selection.ipynb&lt;br&gt;&lt;/i&gt;&lt;/b&gt;" style="edgeLabel;html=1;align=center;verticalAlign=middle;resizable=0;points=[];" parent="WIyWlLk6GJQsqaUBKTNV-1" vertex="1" connectable="0">
          <mxGeometry x="770" y="489.9966666666665" as="geometry" />
        </mxCell>
        <mxCell id="LbXfjOIU6HOhNs-jUx_r-79" style="edgeStyle=orthogonalEdgeStyle;rounded=0;orthogonalLoop=1;jettySize=auto;html=1;exitX=1;exitY=0.5;exitDx=0;exitDy=0;entryX=0.5;entryY=1;entryDx=0;entryDy=0;" parent="WIyWlLk6GJQsqaUBKTNV-1" source="LbXfjOIU6HOhNs-jUx_r-78" target="LbXfjOIU6HOhNs-jUx_r-68" edge="1">
          <mxGeometry relative="1" as="geometry" />
        </mxCell>
        <mxCell id="LbXfjOIU6HOhNs-jUx_r-78" value="&lt;i&gt;new_pvwatts_hourly.csv&lt;/i&gt;" style="rounded=0;whiteSpace=wrap;html=1;shadow=0;fillColor=#FFFFFF;" parent="WIyWlLk6GJQsqaUBKTNV-1" vertex="1">
          <mxGeometry x="950" y="470" width="160" height="40" as="geometry" />
        </mxCell>
        <mxCell id="LbXfjOIU6HOhNs-jUx_r-87" value="&lt;b&gt;&lt;font style=&quot;font-size: 24px;&quot;&gt;Procesamiento de los datos&lt;/font&gt;&lt;/b&gt;" style="text;html=1;align=center;verticalAlign=middle;resizable=0;points=[];autosize=1;strokeColor=none;fillColor=none;" parent="WIyWlLk6GJQsqaUBKTNV-1" vertex="1">
          <mxGeometry x="60" y="20" width="340" height="40" as="geometry" />
        </mxCell>
        <mxCell id="LbXfjOIU6HOhNs-jUx_r-89" value="&lt;font style=&quot;font-size: 48px;&quot;&gt;*&lt;/font&gt;" style="text;html=1;align=center;verticalAlign=middle;resizable=0;points=[];autosize=1;strokeColor=none;fillColor=none;" parent="WIyWlLk6GJQsqaUBKTNV-1" vertex="1">
          <mxGeometry x="1510" y="220" width="40" height="70" as="geometry" />
        </mxCell>
        <mxCell id="LbXfjOIU6HOhNs-jUx_r-117" value="" style="endArrow=none;dashed=1;html=1;rounded=0;exitX=1;exitY=0.5;exitDx=0;exitDy=0;" parent="WIyWlLk6GJQsqaUBKTNV-1" source="LbXfjOIU6HOhNs-jUx_r-16" edge="1">
          <mxGeometry width="50" height="50" relative="1" as="geometry">
            <mxPoint x="370" y="490" as="sourcePoint" />
            <mxPoint x="1140" y="250" as="targetPoint" />
            <Array as="points">
              <mxPoint x="400" y="420" />
              <mxPoint x="1140" y="420" />
            </Array>
          </mxGeometry>
        </mxCell>
        <mxCell id="LbXfjOIU6HOhNs-jUx_r-118" value="" style="endArrow=classic;html=1;rounded=0;" parent="WIyWlLk6GJQsqaUBKTNV-1" edge="1">
          <mxGeometry width="50" height="50" relative="1" as="geometry">
            <mxPoint x="1140" y="270" as="sourcePoint" />
            <mxPoint x="1140" y="250" as="targetPoint" />
          </mxGeometry>
        </mxCell>
      </root>
    </mxGraphModel>
  </diagram>
</mxfile>
